<svg width="444" height="39" viewBox="0 0 444 39" fill="none" xmlns="http://www.w3.org/2000/svg">
<path d="M26.3121 4.01599C26.1841 5.45599 26.0881 6.84799 26.0241 8.19199C25.9921 9.53599 25.9761 10.576 25.9761 11.312C25.9761 12.016 25.9921 12.688 26.0241 13.328C26.0561 13.968 26.0881 14.512 26.1201 14.96H25.0161C24.6001 12.464 24.0241 10.512 23.2881 9.10399C22.5521 7.66399 21.6401 6.63999 20.5521 6.03199C19.4961 5.42399 18.2321 5.11999 16.7601 5.11999H15.1761C14.2481 5.11999 13.5441 5.19999 13.0641 5.35999C12.5841 5.51999 12.2641 5.83999 12.1041 6.31999C11.9441 6.79999 11.8641 7.53599 11.8641 8.52799V32.624C11.8641 33.872 11.9921 34.8 12.2481 35.408C12.5041 36.016 13.0001 36.416 13.7361 36.608C14.4721 36.8 15.5601 36.912 17.0001 36.944V38C16.0081 37.968 14.7281 37.936 13.1601 37.904C11.5921 37.872 9.94408 37.856 8.21608 37.856C6.84008 37.856 5.49608 37.872 4.18408 37.904C2.87208 37.936 1.68808 37.968 0.63208 38V37.04C1.65608 36.976 2.42408 36.848 2.93608 36.656C3.44808 36.464 3.78408 36.08 3.94408 35.504C4.13608 34.928 4.23208 34.064 4.23208 32.912V9.10399C4.23208 7.91999 4.13608 7.05599 3.94408 6.51199C3.78408 5.93599 3.43208 5.55199 2.88808 5.35999C2.37608 5.13599 1.62408 5.00799 0.63208 4.97599V4.01599C1.94408 4.04799 3.33608 4.07999 4.80808 4.11199C6.28008 4.11199 7.73608 4.12799 9.17608 4.15999C10.6161 4.15999 11.9601 4.15999 13.2081 4.15999C14.4561 4.15999 15.4801 4.15999 16.2801 4.15999C17.7521 4.15999 19.4161 4.15999 21.2721 4.15999C23.1601 4.12799 24.8401 4.07999 26.3121 4.01599ZM19.1601 20.624C19.1601 20.624 19.1601 20.784 19.1601 21.104C19.1601 21.424 19.1601 21.584 19.1601 21.584H10.4241C10.4241 21.584 10.4241 21.424 10.4241 21.104C10.4241 20.784 10.4241 20.624 10.4241 20.624H19.1601ZM20.3601 14.288C20.2321 16.112 20.1681 17.504 20.1681 18.464C20.2001 19.424 20.2161 20.304 20.2161 21.104C20.2161 21.904 20.2321 22.784 20.2641 23.744C20.2961 24.704 20.3761 26.096 20.5041 27.92H19.4001C19.2081 26.8 18.9041 25.76 18.4881 24.8C18.0721 23.84 17.4641 23.072 16.6641 22.496C15.8641 21.888 14.8241 21.584 13.5441 21.584V20.624C14.5041 20.624 15.3041 20.432 15.9441 20.048C16.6161 19.632 17.1761 19.104 17.6241 18.464C18.0721 17.792 18.4241 17.088 18.6801 16.352C18.9361 15.616 19.1281 14.928 19.2561 14.288H20.3601Z" fill="#141414"/>
<path d="M34.3855 38.336C32.9455 38.336 31.7455 38.064 30.7855 37.52C29.8255 36.976 29.1215 36.256 28.6735 35.36C28.2255 34.432 28.0015 33.424 28.0015 32.336C28.0015 30.96 28.3055 29.84 28.9135 28.976C29.5535 28.112 30.3695 27.408 31.3615 26.864C32.3535 26.32 33.3935 25.872 34.4815 25.52C35.6015 25.168 36.6575 24.832 37.6495 24.512C38.6735 24.16 39.4895 23.76 40.0975 23.312C40.7375 22.832 41.0575 22.224 41.0575 21.488V17.744C41.0575 16.912 40.9135 16.176 40.6255 15.536C40.3695 14.864 39.9535 14.352 39.3775 14C38.8335 13.648 38.1135 13.472 37.2175 13.472C36.5775 13.472 35.9375 13.568 35.2975 13.76C34.6575 13.92 34.1295 14.208 33.7135 14.624C34.6095 14.944 35.2975 15.44 35.7775 16.112C36.2895 16.752 36.5455 17.488 36.5455 18.32C36.5455 19.408 36.1615 20.272 35.3935 20.912C34.6575 21.552 33.7775 21.872 32.7535 21.872C31.6015 21.872 30.7215 21.52 30.1135 20.816C29.5375 20.08 29.2495 19.2 29.2495 18.176C29.2495 17.248 29.4735 16.48 29.9215 15.872C30.4015 15.264 31.0575 14.688 31.8895 14.144C32.7855 13.632 33.8575 13.232 35.1055 12.944C36.3855 12.656 37.7615 12.512 39.2335 12.512C40.7055 12.512 42.0335 12.672 43.2175 12.992C44.4015 13.28 45.3935 13.824 46.1935 14.624C46.9295 15.36 47.4095 16.272 47.6335 17.36C47.8575 18.416 47.9695 19.76 47.9695 21.392V34.448C47.9695 35.248 48.0495 35.808 48.2095 36.128C48.3695 36.416 48.6415 36.56 49.0255 36.56C49.3135 36.56 49.5855 36.48 49.8415 36.32C50.1295 36.16 50.4335 35.968 50.7535 35.744L51.2335 36.56C50.5615 37.136 49.7775 37.584 48.8815 37.904C48.0175 38.192 47.0415 38.336 45.9535 38.336C44.7695 38.336 43.8255 38.176 43.1215 37.856C42.4175 37.504 41.9055 37.04 41.5855 36.464C41.2975 35.888 41.1535 35.216 41.1535 34.448C40.3855 35.664 39.4575 36.624 38.3695 37.328C37.2815 38 35.9535 38.336 34.3855 38.336ZM37.7935 35.264C38.4335 35.264 39.0095 35.12 39.5215 34.832C40.0655 34.512 40.5775 34 41.0575 33.296V23.456C40.7695 23.936 40.3695 24.368 39.8575 24.752C39.3455 25.136 38.8015 25.536 38.2255 25.952C37.6495 26.336 37.0895 26.768 36.5455 27.248C36.0335 27.728 35.6175 28.32 35.2975 29.024C34.9775 29.728 34.8175 30.576 34.8175 31.568C34.8175 32.816 35.0895 33.744 35.6335 34.352C36.1775 34.96 36.8975 35.264 37.7935 35.264Z" fill="#141414"/>
<path d="M69.0692 12.512C71.5652 12.512 73.6292 13.536 75.2612 15.584C76.9252 17.6 77.7572 20.72 77.7572 24.944C77.7572 28.272 77.2452 30.944 76.2212 32.96C75.2292 34.976 73.9012 36.432 72.2372 37.328C70.5732 38.224 68.7492 38.672 66.7652 38.672C65.4532 38.672 64.2372 38.448 63.1172 38C61.9972 37.552 61.0372 36.816 60.2372 35.792L60.9092 35.552C61.4852 36.256 62.1572 36.784 62.9252 37.136C63.7252 37.488 64.5092 37.664 65.2772 37.664C67.0372 37.664 68.3492 36.672 69.2132 34.688C70.0772 32.704 70.5092 29.68 70.5092 25.616C70.5092 22.864 70.3332 20.688 69.9812 19.088C69.6612 17.456 69.1812 16.304 68.5412 15.632C67.9012 14.928 67.1332 14.576 66.2372 14.576C65.1172 14.576 64.0932 15.04 63.1652 15.968C62.2372 16.864 61.7092 18.128 61.5812 19.76L61.3412 18.08C61.9172 16.256 62.8932 14.88 64.2692 13.952C65.6452 12.992 67.2452 12.512 69.0692 12.512ZM61.7252 0.463989V37.04C60.9252 36.912 60.1092 36.912 59.2772 37.04C58.4452 37.168 57.6772 37.392 56.9732 37.712C56.2692 38 55.6772 38.352 55.1972 38.768L54.4772 38.336C54.6052 37.888 54.6852 37.44 54.7172 36.992C54.7812 36.544 54.8132 36.096 54.8132 35.648V6.22399C54.8132 4.78399 54.5892 3.72799 54.1412 3.05599C53.7252 2.35199 52.9252 1.99999 51.7412 1.99999V0.991991C52.7652 1.08799 53.7572 1.13599 54.7172 1.13599C56.0292 1.13599 57.2772 1.08799 58.4612 0.991991C59.6452 0.863991 60.7332 0.68799 61.7252 0.463989Z" fill="#141414"/>
<path d="M86.9702 0.799991C88.3142 0.799991 89.3702 1.13599 90.1382 1.80799C90.9382 2.44799 91.3382 3.34399 91.3382 4.49599C91.3382 5.64799 90.9382 6.55999 90.1382 7.23199C89.3702 7.87199 88.3142 8.19199 86.9702 8.19199C85.6262 8.19199 84.5542 7.87199 83.7542 7.23199C82.9862 6.55999 82.6022 5.64799 82.6022 4.49599C82.6022 3.34399 82.9862 2.44799 83.7542 1.80799C84.5542 1.13599 85.6262 0.799991 86.9702 0.799991ZM90.7142 12.656V33.536C90.7142 34.88 90.9382 35.792 91.3862 36.272C91.8662 36.752 92.6662 36.992 93.7862 36.992V38C93.2102 37.968 92.3142 37.936 91.0982 37.904C89.8822 37.84 88.6502 37.808 87.4022 37.808C86.1542 37.808 84.8902 37.84 83.6102 37.904C82.3302 37.936 81.3702 37.968 80.7302 38V36.992C81.8502 36.992 82.6342 36.752 83.0822 36.272C83.5622 35.792 83.8022 34.88 83.8022 33.536V18.416C83.8022 16.976 83.5782 15.92 83.1302 15.248C82.7142 14.544 81.9142 14.192 80.7302 14.192V13.184C81.7542 13.28 82.7462 13.328 83.7062 13.328C85.0502 13.328 86.2982 13.28 87.4502 13.184C88.6342 13.056 89.7222 12.88 90.7142 12.656Z" fill="#141414"/>
<path d="M102.495 38.336C101.055 38.336 99.8548 38.064 98.8948 37.52C97.9348 36.976 97.2308 36.256 96.7828 35.36C96.3348 34.432 96.1108 33.424 96.1108 32.336C96.1108 30.96 96.4148 29.84 97.0228 28.976C97.6628 28.112 98.4788 27.408 99.4708 26.864C100.463 26.32 101.503 25.872 102.591 25.52C103.711 25.168 104.767 24.832 105.759 24.512C106.783 24.16 107.599 23.76 108.207 23.312C108.847 22.832 109.167 22.224 109.167 21.488V17.744C109.167 16.912 109.023 16.176 108.735 15.536C108.479 14.864 108.063 14.352 107.487 14C106.943 13.648 106.223 13.472 105.327 13.472C104.687 13.472 104.047 13.568 103.407 13.76C102.767 13.92 102.239 14.208 101.823 14.624C102.719 14.944 103.407 15.44 103.887 16.112C104.399 16.752 104.655 17.488 104.655 18.32C104.655 19.408 104.271 20.272 103.503 20.912C102.767 21.552 101.887 21.872 100.863 21.872C99.7108 21.872 98.8308 21.52 98.2228 20.816C97.6468 20.08 97.3588 19.2 97.3588 18.176C97.3588 17.248 97.5828 16.48 98.0308 15.872C98.5108 15.264 99.1668 14.688 99.9988 14.144C100.895 13.632 101.967 13.232 103.215 12.944C104.495 12.656 105.871 12.512 107.343 12.512C108.815 12.512 110.143 12.672 111.327 12.992C112.511 13.28 113.503 13.824 114.303 14.624C115.039 15.36 115.519 16.272 115.743 17.36C115.967 18.416 116.079 19.76 116.079 21.392V34.448C116.079 35.248 116.159 35.808 116.319 36.128C116.479 36.416 116.751 36.56 117.135 36.56C117.423 36.56 117.695 36.48 117.951 36.32C118.239 36.16 118.543 35.968 118.863 35.744L119.343 36.56C118.671 37.136 117.887 37.584 116.991 37.904C116.127 38.192 115.151 38.336 114.063 38.336C112.879 38.336 111.935 38.176 111.231 37.856C110.527 37.504 110.015 37.04 109.695 36.464C109.407 35.888 109.263 35.216 109.263 34.448C108.495 35.664 107.567 36.624 106.479 37.328C105.391 38 104.063 38.336 102.495 38.336ZM105.903 35.264C106.543 35.264 107.119 35.12 107.631 34.832C108.175 34.512 108.687 34 109.167 33.296V23.456C108.879 23.936 108.479 24.368 107.967 24.752C107.455 25.136 106.911 25.536 106.335 25.952C105.759 26.336 105.199 26.768 104.655 27.248C104.143 27.728 103.727 28.32 103.407 29.024C103.087 29.728 102.927 30.576 102.927 31.568C102.927 32.816 103.199 33.744 103.743 34.352C104.287 34.96 105.007 35.264 105.903 35.264Z" fill="#141414"/>
<path d="M138.571 12.512C139.915 12.512 141.003 12.688 141.835 13.04C142.699 13.36 143.371 13.808 143.851 14.384C144.363 14.992 144.731 15.776 144.955 16.736C145.211 17.696 145.339 18.992 145.339 20.624V33.536C145.339 34.88 145.563 35.792 146.011 36.272C146.491 36.752 147.291 36.992 148.411 36.992V38C147.803 37.968 146.891 37.936 145.675 37.904C144.459 37.84 143.259 37.808 142.075 37.808C140.859 37.808 139.659 37.84 138.475 37.904C137.323 37.936 136.443 37.968 135.835 38V36.992C136.795 36.992 137.467 36.752 137.851 36.272C138.235 35.792 138.427 34.88 138.427 33.536V18.608C138.427 17.808 138.347 17.12 138.187 16.544C138.027 15.936 137.739 15.472 137.323 15.152C136.907 14.8 136.283 14.624 135.451 14.624C134.587 14.624 133.787 14.864 133.051 15.344C132.347 15.824 131.771 16.496 131.323 17.36C130.907 18.192 130.699 19.136 130.699 20.192V33.536C130.699 34.88 130.891 35.792 131.275 36.272C131.691 36.752 132.363 36.992 133.291 36.992V38C132.715 37.968 131.867 37.936 130.747 37.904C129.659 37.84 128.523 37.808 127.339 37.808C126.123 37.808 124.875 37.84 123.595 37.904C122.315 37.936 121.355 37.968 120.715 38V36.992C121.835 36.992 122.619 36.752 123.067 36.272C123.547 35.792 123.787 34.88 123.787 33.536V18.416C123.787 16.976 123.563 15.92 123.115 15.248C122.699 14.544 121.899 14.192 120.715 14.192V13.184C121.739 13.28 122.731 13.328 123.691 13.328C125.035 13.328 126.283 13.28 127.435 13.184C128.619 13.056 129.707 12.88 130.699 12.656V16.976C131.499 15.344 132.587 14.192 133.963 13.52C135.339 12.848 136.875 12.512 138.571 12.512Z" fill="#141414"/>
<path d="M156.823 38.336C155.383 38.336 154.183 38.064 153.223 37.52C152.263 36.976 151.559 36.256 151.111 35.36C150.663 34.432 150.439 33.424 150.439 32.336C150.439 30.96 150.743 29.84 151.351 28.976C151.991 28.112 152.807 27.408 153.799 26.864C154.791 26.32 155.831 25.872 156.919 25.52C158.039 25.168 159.095 24.832 160.087 24.512C161.111 24.16 161.927 23.76 162.535 23.312C163.175 22.832 163.495 22.224 163.495 21.488V17.744C163.495 16.912 163.351 16.176 163.063 15.536C162.807 14.864 162.391 14.352 161.815 14C161.271 13.648 160.551 13.472 159.655 13.472C159.015 13.472 158.375 13.568 157.735 13.76C157.095 13.92 156.567 14.208 156.151 14.624C157.047 14.944 157.735 15.44 158.215 16.112C158.727 16.752 158.983 17.488 158.983 18.32C158.983 19.408 158.599 20.272 157.831 20.912C157.095 21.552 156.215 21.872 155.191 21.872C154.039 21.872 153.159 21.52 152.551 20.816C151.975 20.08 151.687 19.2 151.687 18.176C151.687 17.248 151.911 16.48 152.359 15.872C152.839 15.264 153.495 14.688 154.327 14.144C155.223 13.632 156.295 13.232 157.543 12.944C158.823 12.656 160.199 12.512 161.671 12.512C163.143 12.512 164.471 12.672 165.655 12.992C166.839 13.28 167.831 13.824 168.631 14.624C169.367 15.36 169.847 16.272 170.071 17.36C170.295 18.416 170.407 19.76 170.407 21.392V34.448C170.407 35.248 170.487 35.808 170.647 36.128C170.807 36.416 171.079 36.56 171.463 36.56C171.751 36.56 172.023 36.48 172.279 36.32C172.567 36.16 172.871 35.968 173.191 35.744L173.671 36.56C172.999 37.136 172.215 37.584 171.319 37.904C170.455 38.192 169.479 38.336 168.391 38.336C167.207 38.336 166.263 38.176 165.559 37.856C164.855 37.504 164.343 37.04 164.023 36.464C163.735 35.888 163.591 35.216 163.591 34.448C162.823 35.664 161.895 36.624 160.807 37.328C159.719 38 158.391 38.336 156.823 38.336ZM160.231 35.264C160.871 35.264 161.447 35.12 161.959 34.832C162.503 34.512 163.015 34 163.495 33.296V23.456C163.207 23.936 162.807 24.368 162.295 24.752C161.783 25.136 161.239 25.536 160.663 25.952C160.087 26.336 159.527 26.768 158.983 27.248C158.471 27.728 158.055 28.32 157.735 29.024C157.415 29.728 157.255 30.576 157.255 31.568C157.255 32.816 157.527 33.744 158.071 34.352C158.615 34.96 159.335 35.264 160.231 35.264Z" fill="#141414"/>
<path d="M218.123 4.01599V4.97599C217.099 5.10399 216.331 5.37599 215.819 5.79199C215.307 6.17599 214.955 6.79999 214.763 7.66399C214.603 8.52799 214.523 9.74399 214.523 11.312V38.096C214.139 38.064 213.739 38.048 213.323 38.048C212.939 38.048 212.523 38.064 212.075 38.096L191.243 11.696V30.128C191.243 31.888 191.339 33.248 191.531 34.208C191.723 35.136 192.139 35.808 192.779 36.224C193.451 36.608 194.491 36.88 195.899 37.04V38C195.291 37.936 194.491 37.904 193.499 37.904C192.507 37.872 191.579 37.856 190.715 37.856C189.979 37.856 189.227 37.872 188.459 37.904C187.691 37.904 187.051 37.936 186.539 38V37.04C187.563 36.88 188.331 36.608 188.843 36.224C189.355 35.84 189.691 35.216 189.851 34.352C190.043 33.456 190.139 32.24 190.139 30.704V9.10399C190.139 7.91999 190.043 7.05599 189.851 6.51199C189.691 5.93599 189.339 5.55199 188.795 5.35999C188.283 5.13599 187.531 5.00799 186.539 4.97599V4.01599C187.051 4.04799 187.691 4.07999 188.459 4.11199C189.227 4.14399 189.979 4.15999 190.715 4.15999C191.483 4.15999 192.219 4.14399 192.923 4.11199C193.627 4.07999 194.267 4.04799 194.843 4.01599L213.419 26.912V11.888C213.419 10.128 213.323 8.78399 213.131 7.85599C212.939 6.89599 212.507 6.20799 211.835 5.79199C211.195 5.37599 210.171 5.10399 208.763 4.97599V4.01599C209.371 4.04799 210.171 4.07999 211.163 4.11199C212.155 4.14399 213.083 4.15999 213.947 4.15999C214.715 4.15999 215.467 4.14399 216.203 4.11199C216.971 4.07999 217.611 4.04799 218.123 4.01599Z" fill="#141414"/>
<path d="M226.292 38.336C224.852 38.336 223.652 38.064 222.692 37.52C221.732 36.976 221.028 36.256 220.58 35.36C220.132 34.432 219.908 33.424 219.908 32.336C219.908 30.96 220.212 29.84 220.82 28.976C221.46 28.112 222.276 27.408 223.268 26.864C224.26 26.32 225.3 25.872 226.388 25.52C227.508 25.168 228.564 24.832 229.556 24.512C230.58 24.16 231.396 23.76 232.004 23.312C232.644 22.832 232.964 22.224 232.964 21.488V17.744C232.964 16.912 232.82 16.176 232.532 15.536C232.276 14.864 231.86 14.352 231.284 14C230.74 13.648 230.02 13.472 229.124 13.472C228.484 13.472 227.844 13.568 227.204 13.76C226.564 13.92 226.036 14.208 225.62 14.624C226.516 14.944 227.204 15.44 227.684 16.112C228.196 16.752 228.452 17.488 228.452 18.32C228.452 19.408 228.068 20.272 227.3 20.912C226.564 21.552 225.684 21.872 224.66 21.872C223.508 21.872 222.628 21.52 222.02 20.816C221.444 20.08 221.156 19.2 221.156 18.176C221.156 17.248 221.38 16.48 221.828 15.872C222.308 15.264 222.964 14.688 223.796 14.144C224.692 13.632 225.764 13.232 227.012 12.944C228.292 12.656 229.668 12.512 231.14 12.512C232.612 12.512 233.94 12.672 235.124 12.992C236.308 13.28 237.3 13.824 238.1 14.624C238.836 15.36 239.316 16.272 239.54 17.36C239.764 18.416 239.876 19.76 239.876 21.392V34.448C239.876 35.248 239.956 35.808 240.116 36.128C240.276 36.416 240.548 36.56 240.932 36.56C241.22 36.56 241.492 36.48 241.748 36.32C242.036 36.16 242.34 35.968 242.66 35.744L243.14 36.56C242.468 37.136 241.684 37.584 240.788 37.904C239.924 38.192 238.948 38.336 237.86 38.336C236.676 38.336 235.732 38.176 235.028 37.856C234.324 37.504 233.812 37.04 233.492 36.464C233.204 35.888 233.06 35.216 233.06 34.448C232.292 35.664 231.364 36.624 230.276 37.328C229.188 38 227.86 38.336 226.292 38.336ZM229.7 35.264C230.34 35.264 230.916 35.12 231.428 34.832C231.972 34.512 232.484 34 232.964 33.296V23.456C232.676 23.936 232.276 24.368 231.764 24.752C231.252 25.136 230.708 25.536 230.132 25.952C229.556 26.336 228.996 26.768 228.452 27.248C227.94 27.728 227.524 28.32 227.204 29.024C226.884 29.728 226.724 30.576 226.724 31.568C226.724 32.816 226.996 33.744 227.54 34.352C228.084 34.96 228.804 35.264 229.7 35.264Z" fill="#141414"/>
<path d="M254.015 12.512C255.359 12.512 256.527 12.688 257.519 13.04C258.543 13.36 259.279 13.68 259.727 14C260.815 14.736 261.487 14.256 261.743 12.56H262.751C262.687 13.456 262.639 14.56 262.607 15.872C262.575 17.152 262.559 18.864 262.559 21.008H261.551C261.391 19.824 261.087 18.656 260.639 17.504C260.191 16.352 259.535 15.408 258.671 14.672C257.839 13.936 256.751 13.568 255.407 13.568C254.479 13.568 253.695 13.84 253.055 14.384C252.415 14.896 252.095 15.648 252.095 16.64C252.095 17.6 252.383 18.448 252.959 19.184C253.535 19.888 254.271 20.576 255.167 21.248C256.095 21.888 257.055 22.576 258.047 23.312C259.103 24.112 260.063 24.912 260.927 25.712C261.791 26.48 262.479 27.328 262.991 28.256C263.503 29.184 263.759 30.288 263.759 31.568C263.759 33.008 263.343 34.272 262.511 35.36C261.679 36.416 260.575 37.232 259.199 37.808C257.855 38.384 256.351 38.672 254.687 38.672C253.727 38.672 252.863 38.576 252.095 38.384C251.359 38.192 250.719 37.952 250.175 37.664C249.759 37.472 249.359 37.296 248.975 37.136C248.623 36.944 248.287 36.784 247.967 36.656C247.647 36.56 247.359 36.672 247.103 36.992C246.879 37.312 246.703 37.76 246.575 38.336H245.567C245.631 37.312 245.679 36.064 245.711 34.592C245.743 33.12 245.759 31.168 245.759 28.736H246.767C246.959 30.464 247.311 32 247.823 33.344C248.335 34.656 249.023 35.696 249.887 36.464C250.783 37.2 251.903 37.568 253.247 37.568C253.791 37.568 254.319 37.456 254.831 37.232C255.343 37.008 255.759 36.64 256.079 36.128C256.431 35.616 256.607 34.96 256.607 34.16C256.607 32.752 256.143 31.584 255.215 30.656C254.319 29.728 253.167 28.72 251.759 27.632C250.735 26.8 249.759 25.984 248.831 25.184C247.935 24.352 247.199 23.456 246.623 22.496C246.047 21.504 245.759 20.384 245.759 19.136C245.759 17.696 246.143 16.48 246.911 15.488C247.679 14.496 248.687 13.76 249.935 13.28C251.215 12.768 252.575 12.512 254.015 12.512Z" fill="#141414"/>
<path d="M279.163 12.512C280.411 12.512 281.547 12.656 282.571 12.944C283.627 13.2 284.491 13.536 285.163 13.952C285.995 14.464 286.635 15.104 287.083 15.872C287.563 16.608 287.803 17.472 287.803 18.464C287.803 19.584 287.451 20.512 286.747 21.248C286.043 21.952 285.131 22.304 284.011 22.304C282.891 22.304 281.995 21.984 281.323 21.344C280.651 20.704 280.315 19.84 280.315 18.752C280.315 17.728 280.635 16.88 281.275 16.208C281.915 15.504 282.651 15.04 283.483 14.816C283.227 14.496 282.843 14.224 282.331 14C281.819 13.776 281.243 13.664 280.603 13.664C279.611 13.664 278.731 13.952 277.963 14.528C277.227 15.104 276.603 15.904 276.091 16.928C275.579 17.952 275.179 19.152 274.891 20.528C274.635 21.904 274.507 23.408 274.507 25.04C274.507 27.504 274.811 29.44 275.419 30.848C276.059 32.256 276.859 33.248 277.819 33.824C278.811 34.4 279.835 34.688 280.891 34.688C281.499 34.688 282.155 34.592 282.859 34.4C283.595 34.208 284.331 33.824 285.067 33.248C285.835 32.672 286.539 31.856 287.179 30.8L287.995 31.088C287.643 32.272 287.067 33.456 286.267 34.64C285.467 35.824 284.427 36.8 283.147 37.568C281.867 38.304 280.299 38.672 278.443 38.672C276.363 38.672 274.475 38.224 272.779 37.328C271.115 36.4 269.771 34.992 268.747 33.104C267.755 31.184 267.259 28.72 267.259 25.712C267.259 22.832 267.771 20.416 268.795 18.464C269.851 16.48 271.275 14.992 273.067 14C274.859 13.008 276.891 12.512 279.163 12.512Z" fill="#141414"/>
<path d="M296.736 0.799991C298.08 0.799991 299.136 1.13599 299.904 1.80799C300.704 2.44799 301.104 3.34399 301.104 4.49599C301.104 5.64799 300.704 6.55999 299.904 7.23199C299.136 7.87199 298.08 8.19199 296.736 8.19199C295.392 8.19199 294.32 7.87199 293.52 7.23199C292.752 6.55999 292.368 5.64799 292.368 4.49599C292.368 3.34399 292.752 2.44799 293.52 1.80799C294.32 1.13599 295.392 0.799991 296.736 0.799991ZM300.48 12.656V33.536C300.48 34.88 300.704 35.792 301.152 36.272C301.632 36.752 302.432 36.992 303.552 36.992V38C302.976 37.968 302.08 37.936 300.864 37.904C299.648 37.84 298.416 37.808 297.168 37.808C295.92 37.808 294.656 37.84 293.376 37.904C292.096 37.936 291.136 37.968 290.496 38V36.992C291.616 36.992 292.4 36.752 292.848 36.272C293.328 35.792 293.568 34.88 293.568 33.536V18.416C293.568 16.976 293.344 15.92 292.896 15.248C292.48 14.544 291.68 14.192 290.496 14.192V13.184C291.52 13.28 292.512 13.328 293.472 13.328C294.816 13.328 296.064 13.28 297.216 13.184C298.4 13.056 299.488 12.88 300.48 12.656Z" fill="#141414"/>
<path d="M323.06 12.512C324.404 12.512 325.492 12.688 326.324 13.04C327.156 13.36 327.828 13.808 328.34 14.384C328.852 14.992 329.22 15.792 329.444 16.784C329.668 17.744 329.78 19.024 329.78 20.624V33.536C329.78 34.88 329.988 35.792 330.404 36.272C330.82 36.752 331.54 36.992 332.564 36.992V38C331.988 37.968 331.108 37.936 329.924 37.904C328.772 37.84 327.636 37.808 326.516 37.808C325.364 37.808 324.228 37.84 323.108 37.904C321.988 37.936 321.14 37.968 320.564 38V36.992C321.428 36.992 322.02 36.752 322.34 36.272C322.692 35.792 322.868 34.88 322.868 33.536V18.608C322.868 17.808 322.804 17.12 322.676 16.544C322.548 15.936 322.292 15.472 321.908 15.152C321.556 14.8 321.012 14.624 320.276 14.624C319.444 14.624 318.676 14.864 317.972 15.344C317.268 15.824 316.692 16.496 316.244 17.36C315.828 18.192 315.62 19.136 315.62 20.192V33.536C315.62 34.88 315.796 35.792 316.148 36.272C316.5 36.752 317.092 36.992 317.924 36.992V38C317.412 37.968 316.612 37.936 315.524 37.904C314.468 37.84 313.38 37.808 312.26 37.808C311.044 37.808 309.796 37.84 308.516 37.904C307.236 37.936 306.276 37.968 305.636 38V36.992C306.756 36.992 307.54 36.752 307.988 36.272C308.468 35.792 308.708 34.88 308.708 33.536V18.416C308.708 16.976 308.484 15.92 308.036 15.248C307.62 14.544 306.82 14.192 305.636 14.192V13.184C306.66 13.28 307.652 13.328 308.612 13.328C309.956 13.328 311.204 13.28 312.356 13.184C313.54 13.056 314.628 12.88 315.62 12.656V16.976C316.388 15.376 317.428 14.24 318.74 13.568C320.052 12.864 321.492 12.512 323.06 12.512ZM337.508 12.512C338.852 12.512 339.94 12.688 340.772 13.04C341.604 13.36 342.276 13.808 342.788 14.384C343.3 14.992 343.668 15.792 343.892 16.784C344.116 17.744 344.228 19.024 344.228 20.624V33.536C344.228 34.88 344.452 35.792 344.9 36.272C345.38 36.752 346.18 36.992 347.3 36.992V38C346.692 37.968 345.78 37.936 344.564 37.904C343.348 37.84 342.148 37.808 340.964 37.808C339.812 37.808 338.676 37.84 337.556 37.904C336.436 37.936 335.588 37.968 335.012 38V36.992C335.876 36.992 336.468 36.752 336.788 36.272C337.14 35.792 337.316 34.88 337.316 33.536V18.608C337.316 17.808 337.236 17.12 337.076 16.544C336.948 15.936 336.676 15.472 336.26 15.152C335.876 14.8 335.268 14.624 334.436 14.624C333.604 14.624 332.836 14.88 332.132 15.392C331.428 15.904 330.852 16.592 330.404 17.456C329.988 18.32 329.764 19.28 329.732 20.336L329.492 17.408C330.356 15.488 331.492 14.192 332.9 13.52C334.34 12.848 335.876 12.512 337.508 12.512Z" fill="#141414"/>
<path d="M361.474 12.512C364.29 12.512 366.498 13.344 368.098 15.008C369.698 16.672 370.498 19.392 370.498 23.168H354.706L354.61 22.256H364.45C364.482 20.688 364.386 19.248 364.162 17.936C363.938 16.592 363.586 15.52 363.106 14.72C362.626 13.92 361.986 13.52 361.186 13.52C360.066 13.52 359.106 14.224 358.306 15.632C357.538 17.04 357.074 19.376 356.914 22.64L357.058 22.928C357.026 23.312 356.994 23.712 356.962 24.128C356.962 24.544 356.962 24.976 356.962 25.424C356.962 27.632 357.266 29.424 357.874 30.8C358.514 32.176 359.314 33.184 360.274 33.824C361.234 34.432 362.21 34.736 363.202 34.736C363.874 34.736 364.562 34.64 365.266 34.448C366.002 34.224 366.738 33.84 367.474 33.296C368.21 32.72 368.898 31.92 369.538 30.896L370.402 31.184C370.018 32.4 369.41 33.584 368.578 34.736C367.746 35.888 366.69 36.832 365.41 37.568C364.13 38.304 362.594 38.672 360.802 38.672C358.626 38.672 356.706 38.208 355.042 37.28C353.378 36.352 352.066 34.944 351.106 33.056C350.178 31.168 349.714 28.768 349.714 25.856C349.714 22.88 350.21 20.4 351.202 18.416C352.226 16.432 353.618 14.96 355.378 14C357.17 13.008 359.202 12.512 361.474 12.512Z" fill="#141414"/>
<path d="M390.852 12.512C392.196 12.512 393.284 12.688 394.116 13.04C394.98 13.36 395.652 13.808 396.132 14.384C396.644 14.992 397.012 15.776 397.236 16.736C397.492 17.696 397.62 18.992 397.62 20.624V33.536C397.62 34.88 397.844 35.792 398.292 36.272C398.772 36.752 399.572 36.992 400.692 36.992V38C400.084 37.968 399.172 37.936 397.956 37.904C396.74 37.84 395.54 37.808 394.356 37.808C393.14 37.808 391.94 37.84 390.756 37.904C389.604 37.936 388.724 37.968 388.116 38V36.992C389.076 36.992 389.748 36.752 390.132 36.272C390.516 35.792 390.708 34.88 390.708 33.536V18.608C390.708 17.808 390.628 17.12 390.468 16.544C390.308 15.936 390.02 15.472 389.604 15.152C389.188 14.8 388.564 14.624 387.732 14.624C386.868 14.624 386.068 14.864 385.332 15.344C384.628 15.824 384.052 16.496 383.604 17.36C383.188 18.192 382.98 19.136 382.98 20.192V33.536C382.98 34.88 383.172 35.792 383.556 36.272C383.972 36.752 384.644 36.992 385.572 36.992V38C384.996 37.968 384.148 37.936 383.028 37.904C381.94 37.84 380.804 37.808 379.62 37.808C378.404 37.808 377.156 37.84 375.876 37.904C374.596 37.936 373.636 37.968 372.996 38V36.992C374.116 36.992 374.9 36.752 375.348 36.272C375.828 35.792 376.068 34.88 376.068 33.536V18.416C376.068 16.976 375.844 15.92 375.396 15.248C374.98 14.544 374.18 14.192 372.996 14.192V13.184C374.02 13.28 375.012 13.328 375.972 13.328C377.316 13.328 378.564 13.28 379.716 13.184C380.9 13.056 381.988 12.88 382.98 12.656V16.976C383.78 15.344 384.868 14.192 386.244 13.52C387.62 12.848 389.156 12.512 390.852 12.512Z" fill="#141414"/>
<path d="M412.224 5.31199V13.184H417.888V14.144H412.224V33.536C412.224 34.496 412.4 35.184 412.752 35.6C413.104 35.984 413.632 36.176 414.336 36.176C414.912 36.176 415.488 35.968 416.064 35.552C416.64 35.104 417.152 34.352 417.6 33.296L418.416 33.728C417.904 35.168 417.12 36.352 416.064 37.28C415.04 38.208 413.632 38.672 411.84 38.672C410.784 38.672 409.856 38.528 409.056 38.24C408.256 37.984 407.584 37.584 407.04 37.04C406.336 36.336 405.872 35.472 405.648 34.448C405.424 33.392 405.312 32.032 405.312 30.368V14.144H401.28V13.184H405.312V6.84799C406.656 6.84799 407.888 6.73599 409.008 6.51199C410.16 6.25599 411.232 5.85599 412.224 5.31199Z" fill="#141414"/>
<path d="M431.552 12.512C433.888 12.512 435.936 12.944 437.696 13.808C439.456 14.672 440.832 16.064 441.824 17.984C442.816 19.904 443.312 22.448 443.312 25.616C443.312 28.784 442.816 31.328 441.824 33.248C440.832 35.136 439.456 36.512 437.696 37.376C435.936 38.24 433.888 38.672 431.552 38.672C429.28 38.672 427.248 38.24 425.456 37.376C423.696 36.512 422.304 35.136 421.28 33.248C420.288 31.328 419.792 28.784 419.792 25.616C419.792 22.448 420.288 19.904 421.28 17.984C422.304 16.064 423.696 14.672 425.456 13.808C427.248 12.944 429.28 12.512 431.552 12.512ZM431.552 13.472C430.272 13.472 429.2 14.432 428.336 16.352C427.472 18.24 427.04 21.328 427.04 25.616C427.04 29.904 427.472 32.992 428.336 34.88C429.2 36.768 430.272 37.712 431.552 37.712C432.864 37.712 433.936 36.768 434.768 34.88C435.632 32.992 436.064 29.904 436.064 25.616C436.064 21.328 435.632 18.24 434.768 16.352C433.936 14.432 432.864 13.472 431.552 13.472Z" fill="#141414"/>
</svg>
